<svg width="16" height="19" viewBox="0 0 16 19" fill="none" xmlns="http://www.w3.org/2000/svg">
<path fill-rule="evenodd" clip-rule="evenodd" d="M8.97402 18.5415C11.0897 17.0979 15.9166 13.3051 15.9166 8.75016C15.9166 4.37791 12.3722 0.833496 7.99998 0.833496C3.62773 0.833496 0.083313 4.37791 0.083313 8.75016C0.083313 13.3051 4.91023 17.0979 7.02594 18.5415C7.61757 18.9452 8.38239 18.9452 8.97402 18.5415ZM7.99998 11.2502C9.38069 11.2502 10.5 10.1309 10.5 8.75016C10.5 7.36945 9.38069 6.25016 7.99998 6.25016C6.61927 6.25016 5.49998 7.36945 5.49998 8.75016C5.49998 10.1309 6.61927 11.2502 7.99998 11.2502Z" fill="#898989"/>
</svg>
