<svg width="16" height="16" viewBox="0 0 16 16" fill="none" xmlns="http://www.w3.org/2000/svg">
<path d="M11.4307 11.0671L10.9152 11.8403C10.8123 11.9947 10.6762 12.1264 10.4969 12.1738C9.90944 12.329 8.34988 12.3991 5.97548 10.0247C3.60109 7.65029 3.67117 6.0907 3.82639 5.50326C3.87377 5.32393 4.00547 5.18784 4.15981 5.08495L4.93306 4.56945C5.50876 4.18565 5.66433 3.40782 5.28053 2.83212L3.82012 0.641504C3.48512 0.139007 2.83931 -0.0529745 2.28421 0.184924L1.62542 0.467265C1.12496 0.681747 0.716721 1.06668 0.47322 1.55368C0.269783 1.96055 0.112105 2.38901 0.0907411 2.84341C0.0234153 4.27539 0.337412 7.80336 4.26711 11.7331C8.1968 15.6628 11.7247 15.9767 13.1567 15.9094C13.6111 15.888 14.0396 15.7304 14.4465 15.5269C14.9335 15.2834 15.3184 14.8752 15.5329 14.3747L15.8152 13.7159C16.0531 13.1608 15.8611 12.515 15.3586 12.18L13.168 10.7196C12.5923 10.3358 11.8145 10.4914 11.4307 11.0671Z" fill="#898989"/>
</svg>
